<svg width="523" height="421" viewBox="0 0 523 421" fill="none" xmlns="http://www.w3.org/2000/svg">
<g clip-path="url(#clip0_83_682)">
<path d="M370.456 0H284.634L437.179 210.5L335.026 351.468H278.503L380.67 210.5L228.125 0H0L152.544 210.5L0 421H85.8212L238.366 210.5L136.199 69.5189H192.695L294.862 210.5L142.304 421H370.456L523 210.5L370.456 0Z" fill="url(#paint0_linear_83_682)"/>
<g style="mix-blend-mode:soft-light">
<g style="mix-blend-mode:soft-light">
<path style="mix-blend-mode:soft-light" d="M284.634 -0.000244141L437.179 210.5H523L370.455 -0.000244141H284.634Z" fill="url(#paint1_linear_83_682)"/>
</g>
<g style="mix-blend-mode:soft-light">
<path style="mix-blend-mode:soft-light" d="M294.862 210.5H380.67L228.125 -0.00012207L192.696 69.5188L294.862 210.5Z" fill="url(#paint2_linear_83_682)"/>
</g>
</g>
<path style="mix-blend-mode:overlay" d="M278.504 351.468L319.067 295.498L294.862 210.5L142.304 421H370.456L335.026 351.468H278.504Z" fill="url(#paint3_linear_83_682)"/>
<path style="mix-blend-mode:overlay" d="M0 421H85.8212L152.544 210.5L0 421Z" fill="url(#paint4_linear_83_682)"/>
</g>
<defs>
<linearGradient id="paint0_linear_83_682" x1="566.077" y1="210.5" x2="-354.962" y2="210.5" gradientUnits="userSpaceOnUse">
<stop stop-color="#1DACF0"/>
<stop offset="1" stop-color="#1B43C4"/>
</linearGradient>
<linearGradient id="paint1_linear_83_682" x1="582.515" y1="71.1292" x2="22.8963" y2="177.817" gradientUnits="userSpaceOnUse">
<stop stop-color="#F1F2F2"/>
<stop offset="1" stop-color="#F1F2F2"/>
</linearGradient>
<linearGradient id="paint2_linear_83_682" x1="82032.9" y1="8350.53" x2="2372.07" y2="21924.5" gradientUnits="userSpaceOnUse">
<stop stop-color="#F1F2F2"/>
<stop offset="1" stop-color="#F1F2F2"/>
</linearGradient>
<linearGradient id="paint3_linear_83_682" x1="250.814" y1="833.601" x2="260.472" y2="119.073" gradientUnits="userSpaceOnUse">
<stop stop-color="#231F20"/>
<stop offset="1" stop-color="#231F20"/>
</linearGradient>
<linearGradient id="paint4_linear_83_682" x1="-32887" y1="52366.1" x2="26906.1" y2="50868.5" gradientUnits="userSpaceOnUse">
<stop stop-color="#231F20"/>
<stop offset="1" stop-color="#231F20"/>
</linearGradient>
<clipPath id="clip0_83_682">
<rect width="523" height="421" fill="white"/>
</clipPath>
</defs>
</svg>
