<svg width="30" height="24" viewBox="0 0 30 24" fill="none" xmlns="http://www.w3.org/2000/svg">
<path d="M27.1875 2.625C27.4361 2.625 27.6746 2.72377 27.8504 2.89959C28.0262 3.0754 28.125 3.31386 28.125 3.5625V20.4375C28.125 20.6861 28.0262 20.9246 27.8504 21.1004C27.6746 21.2762 27.4361 21.375 27.1875 21.375H2.8125C2.56386 21.375 2.3254 21.2762 2.14959 21.1004C1.97377 20.9246 1.875 20.6861 1.875 20.4375V3.5625C1.875 3.31386 1.97377 3.0754 2.14959 2.89959C2.3254 2.72377 2.56386 2.625 2.8125 2.625H27.1875ZM2.8125 0.75C2.06658 0.75 1.35121 1.04632 0.823762 1.57376C0.296316 2.10121 0 2.81658 0 3.5625L0 20.4375C0 21.1834 0.296316 21.8988 0.823762 22.4262C1.35121 22.9537 2.06658 23.25 2.8125 23.25H27.1875C27.9334 23.25 28.6488 22.9537 29.1762 22.4262C29.7037 21.8988 30 21.1834 30 20.4375V3.5625C30 2.81658 29.7037 2.10121 29.1762 1.57376C28.6488 1.04632 27.9334 0.75 27.1875 0.75H2.8125Z" fill="#081CBB"/>
<path d="M9.375 12C9.375 11.7514 9.47377 11.5129 9.64959 11.3371C9.8254 11.1613 10.0639 11.0625 10.3125 11.0625H23.4375C23.6861 11.0625 23.9246 11.1613 24.1004 11.3371C24.2762 11.5129 24.375 11.7514 24.375 12C24.375 12.2486 24.2762 12.4871 24.1004 12.6629C23.9246 12.8387 23.6861 12.9375 23.4375 12.9375H10.3125C10.0639 12.9375 9.8254 12.8387 9.64959 12.6629C9.47377 12.4871 9.375 12.2486 9.375 12ZM9.375 7.3125C9.375 7.06386 9.47377 6.8254 9.64959 6.64959C9.8254 6.47377 10.0639 6.375 10.3125 6.375H23.4375C23.6861 6.375 23.9246 6.47377 24.1004 6.64959C24.2762 6.8254 24.375 7.06386 24.375 7.3125C24.375 7.56114 24.2762 7.7996 24.1004 7.97541C23.9246 8.15123 23.6861 8.25 23.4375 8.25H10.3125C10.0639 8.25 9.8254 8.15123 9.64959 7.97541C9.47377 7.7996 9.375 7.56114 9.375 7.3125ZM9.375 16.6875C9.375 16.4389 9.47377 16.2004 9.64959 16.0246C9.8254 15.8488 10.0639 15.75 10.3125 15.75H23.4375C23.6861 15.75 23.9246 15.8488 24.1004 16.0246C24.2762 16.2004 24.375 16.4389 24.375 16.6875C24.375 16.9361 24.2762 17.1746 24.1004 17.3504C23.9246 17.5262 23.6861 17.625 23.4375 17.625H10.3125C10.0639 17.625 9.8254 17.5262 9.64959 17.3504C9.47377 17.1746 9.375 16.9361 9.375 16.6875ZM7.5 7.3125C7.5 7.56114 7.40123 7.7996 7.22541 7.97541C7.0496 8.15123 6.81114 8.25 6.5625 8.25C6.31386 8.25 6.0754 8.15123 5.89959 7.97541C5.72377 7.7996 5.625 7.56114 5.625 7.3125C5.625 7.06386 5.72377 6.8254 5.89959 6.64959C6.0754 6.47377 6.31386 6.375 6.5625 6.375C6.81114 6.375 7.0496 6.47377 7.22541 6.64959C7.40123 6.8254 7.5 7.06386 7.5 7.3125ZM7.5 12C7.5 12.2486 7.40123 12.4871 7.22541 12.6629C7.0496 12.8387 6.81114 12.9375 6.5625 12.9375C6.31386 12.9375 6.0754 12.8387 5.89959 12.6629C5.72377 12.4871 5.625 12.2486 5.625 12C5.625 11.7514 5.72377 11.5129 5.89959 11.3371C6.0754 11.1613 6.31386 11.0625 6.5625 11.0625C6.81114 11.0625 7.0496 11.1613 7.22541 11.3371C7.40123 11.5129 7.5 11.7514 7.5 12ZM7.5 16.6875C7.5 16.9361 7.40123 17.1746 7.22541 17.3504C7.0496 17.5262 6.81114 17.625 6.5625 17.625C6.31386 17.625 6.0754 17.5262 5.89959 17.3504C5.72377 17.1746 5.625 16.9361 5.625 16.6875C5.625 16.4389 5.72377 16.2004 5.89959 16.0246C6.0754 15.8488 6.31386 15.75 6.5625 15.75C6.81114 15.75 7.0496 15.8488 7.22541 16.0246C7.40123 16.2004 7.5 16.4389 7.5 16.6875Z" fill="#081CBB"/>
</svg>
