<svg width="30" height="30" viewBox="0 0 30 30" fill="none" xmlns="http://www.w3.org/2000/svg">
<path d="M20 1.25C20.3315 1.25 20.6495 1.3817 20.8839 1.61612C21.1183 1.85054 21.25 2.16848 21.25 2.5V3.75H27.5V11.25H24.9763L28.4087 20.6812C28.6534 21.3157 28.7661 21.9935 28.7398 22.673C28.7136 23.3525 28.549 24.0195 28.2562 24.6332C27.9634 25.247 27.5484 25.7945 27.0368 26.2424C26.5251 26.6903 25.9274 27.0291 25.2803 27.2381C24.6332 27.4471 23.9503 27.5219 23.2733 27.458C22.5963 27.394 21.9394 27.1926 21.3429 26.8661C20.7464 26.5396 20.2228 26.0949 19.804 25.5591C19.3853 25.0233 19.0802 24.4077 18.9075 23.75H13.5925C13.3084 24.8471 12.6602 25.8152 11.7541 26.4958C10.848 27.1764 9.73764 27.5291 8.60486 27.4963C7.47208 27.4635 6.38401 27.047 5.51882 26.3151C4.65363 25.5832 4.0626 24.5792 3.8425 23.4675C3.43741 23.2559 3.09808 22.9373 2.86139 22.5463C2.6247 22.1554 2.49971 21.707 2.5 21.25V8.75C2.5 8.41848 2.6317 8.10054 2.86612 7.86612C3.10054 7.6317 3.41848 7.5 3.75 7.5H12.5C12.8315 7.5 13.1495 7.6317 13.3839 7.86612C13.6183 8.10054 13.75 8.41848 13.75 8.75V15C13.75 15.3315 13.8817 15.6495 14.1161 15.8839C14.3505 16.1183 14.6685 16.25 15 16.25H17.5C17.8315 16.25 18.1495 16.1183 18.3839 15.8839C18.6183 15.6495 18.75 15.3315 18.75 15V3.75H15V1.25H20ZM23.75 20C23.2184 20.0002 22.7006 20.1698 22.272 20.4843C21.8433 20.7987 21.5261 21.2417 21.3663 21.7488C21.2065 22.2558 21.2126 22.8006 21.3836 23.304C21.5546 23.8074 21.8816 24.2432 22.3171 24.5481C22.7526 24.853 23.274 25.011 23.8055 24.9994C24.337 24.9877 24.851 24.807 25.2728 24.4833C25.6945 24.1596 26.0021 23.7099 26.1509 23.1995C26.2996 22.6891 26.2818 22.1446 26.1 21.645L26.08 21.59C25.8968 21.1212 25.5764 20.7187 25.1607 20.435C24.745 20.1513 24.2533 19.9997 23.75 20ZM8.75 20C8.08696 20 7.45107 20.2634 6.98223 20.7322C6.51339 21.2011 6.25 21.837 6.25 22.5C6.25 23.163 6.51339 23.7989 6.98223 24.2678C7.45107 24.7366 8.08696 25 8.75 25C9.41304 25 10.0489 24.7366 10.5178 24.2678C10.9866 23.7989 11.25 23.163 11.25 22.5C11.25 21.837 10.9866 21.2011 10.5178 20.7322C10.0489 20.2634 9.41304 20 8.75 20ZM11.25 10H5V12.5H11.25V10ZM25 6.25H21.25V8.75H25V6.25Z" fill="#081CBB"/>
</svg>
