<svg width="30" height="30" viewBox="0 0 30 30" fill="none" xmlns="http://www.w3.org/2000/svg">
<path d="M17.275 27.5H12.725C12.4399 27.5 12.1634 27.4026 11.9412 27.2239C11.7191 27.0452 11.5647 26.796 11.5037 26.5175L10.995 24.1625C10.3163 23.8651 9.67277 23.4933 9.07623 23.0538L6.77998 23.785C6.50818 23.8717 6.21491 23.8628 5.94888 23.7598C5.68284 23.6568 5.46004 23.4659 5.31748 23.2188L3.03748 19.28C2.89641 19.0327 2.84346 18.7448 2.88728 18.4634C2.93111 18.1821 3.06911 17.924 3.27873 17.7313L5.05998 16.1063C4.97897 15.3701 4.97897 14.6274 5.05998 13.8912L3.27873 12.27C3.06882 12.0772 2.93062 11.8188 2.88679 11.5372C2.84296 11.2556 2.89609 10.9675 3.03748 10.72L5.31248 6.77875C5.45504 6.53164 5.67784 6.34074 5.94388 6.23773C6.20991 6.13473 6.50318 6.12583 6.77498 6.2125L9.07123 6.94375C9.37623 6.71875 9.69373 6.50875 10.0212 6.31875C10.3375 6.14125 10.6625 5.98 10.995 5.83625L11.505 3.48375C11.5657 3.20525 11.7198 2.95586 11.9417 2.77694C12.1636 2.59801 12.4399 2.5003 12.725 2.5H17.275C17.56 2.5003 17.8364 2.59801 18.0583 2.77694C18.2802 2.95586 18.4343 3.20525 18.495 3.48375L19.01 5.8375C19.6878 6.13658 20.3311 6.50834 20.9287 6.94625L23.2262 6.215C23.4979 6.12865 23.7908 6.13771 24.0566 6.2407C24.3224 6.34369 24.545 6.53441 24.6875 6.78125L26.9625 10.7225C27.2525 11.2312 27.1525 11.875 26.7212 12.2713L24.94 13.8962C25.021 14.6324 25.021 15.3751 24.94 16.1112L26.7212 17.7362C27.1525 18.1337 27.2525 18.7763 26.9625 19.285L24.6875 23.2262C24.5449 23.4734 24.3221 23.6643 24.0561 23.7673C23.79 23.8703 23.4968 23.8792 23.225 23.7925L20.9287 23.0612C20.3326 23.5004 19.6895 23.8719 19.0112 24.1687L18.495 26.5175C18.434 26.7958 18.2798 27.0449 18.058 27.2236C17.8361 27.4022 17.5598 27.4998 17.275 27.5ZM14.995 10C13.6689 10 12.3971 10.5268 11.4594 11.4645C10.5218 12.4021 9.99498 13.6739 9.99498 15C9.99498 16.3261 10.5218 17.5979 11.4594 18.5355C12.3971 19.4732 13.6689 20 14.995 20C16.3211 20 17.5928 19.4732 18.5305 18.5355C19.4682 17.5979 19.995 16.3261 19.995 15C19.995 13.6739 19.4682 12.4021 18.5305 11.4645C17.5928 10.5268 16.3211 10 14.995 10Z" fill="#081CBB"/>
</svg>
