<svg width="30" height="30" viewBox="0 0 30 30" fill="none" xmlns="http://www.w3.org/2000/svg">
<g clip-path="url(#clip0_14_224)">
<path d="M4.0905 4.9995C2.961 4.9995 2.046 5.895 2.046 7.0005V22.9995C2.046 24.105 2.961 25.0005 4.0905 25.0005H25.9095C27.039 25.0005 27.954 24.105 27.954 22.9995V7.0005C27.954 5.895 27.039 4.9995 25.9095 4.9995H4.0905ZM25.9095 3C28.1685 3 30 4.791 30 7.0005V22.9995C30 25.209 28.1685 27 25.9095 27H4.0905C1.8315 27 0 25.209 0 22.9995V7.0005C0 4.791 1.8315 3 4.0905 3H25.9095ZM12.2505 19.6995H6C5.86711 19.6979 5.7352 19.7225 5.61184 19.772C5.48848 19.8214 5.37607 19.8947 5.28105 19.9876C5.18604 20.0806 5.11028 20.1913 5.0581 20.3135C5.00593 20.4358 4.97837 20.5671 4.977 20.7C4.977 21.252 5.4345 21.7005 6 21.7005H12.2505C12.3833 21.7019 12.515 21.6771 12.6382 21.6276C12.7614 21.578 12.8736 21.5047 12.9685 21.4118C13.0633 21.3189 13.139 21.2082 13.191 21.0861C13.2431 20.964 13.2706 20.8328 13.272 20.7C13.2706 20.5672 13.2431 20.436 13.191 20.3139C13.139 20.1918 13.0633 20.0811 12.9685 19.9882C12.8736 19.8953 12.7614 19.822 12.6382 19.7724C12.515 19.7229 12.3833 19.6981 12.2505 19.6995ZM20.625 7.9995C18.339 7.9995 16.4775 9.786 16.4775 12C16.4775 13.1595 16.9875 14.202 17.8035 14.9325C16.2585 15.8445 15.228 17.487 15.228 19.3635C15.228 19.899 15.312 20.4255 15.4755 20.928C15.648 21.453 16.224 21.744 16.761 21.576C16.8877 21.538 17.0056 21.4752 17.1078 21.3912C17.21 21.3071 17.2944 21.2036 17.3561 21.0866C17.4179 20.9695 17.4557 20.8414 17.4673 20.7096C17.479 20.5778 17.4642 20.445 17.424 20.319C17.3237 20.0104 17.2731 19.6879 17.274 19.3635C17.274 17.601 18.7695 16.164 20.625 16.164C22.4805 16.164 23.9775 17.601 23.9775 19.3635C23.9775 19.623 23.946 19.8765 23.883 20.1225C23.8514 20.2511 23.8456 20.3846 23.8661 20.5155C23.8866 20.6463 23.9328 20.7717 24.0022 20.8845C24.0715 20.9972 24.1626 21.0951 24.2702 21.1724C24.3777 21.2496 24.4995 21.3047 24.6285 21.3345C24.8894 21.3999 25.1655 21.3602 25.3973 21.2238C25.6291 21.0874 25.798 20.8653 25.8675 20.6055C25.971 20.2005 26.022 19.785 26.022 19.3635C26.022 17.487 24.9915 15.8445 23.4465 14.9295C24.2625 14.202 24.7725 13.1595 24.7725 12C24.7725 9.786 22.9125 7.9995 20.625 7.9995ZM12.2505 14.4495H6C5.86711 14.4479 5.7352 14.4725 5.61184 14.522C5.48848 14.5714 5.37607 14.6447 5.28105 14.7376C5.18604 14.8306 5.11028 14.9413 5.0581 15.0635C5.00593 15.1858 4.97837 15.3171 4.977 15.45C4.977 16.002 5.4345 16.4505 6 16.4505H12.2505C12.3833 16.4519 12.515 16.4271 12.6382 16.3776C12.7614 16.328 12.8736 16.2547 12.9685 16.1618C13.0633 16.0689 13.139 15.9582 13.191 15.8361C13.2431 15.714 13.2706 15.5828 13.272 15.45C13.2706 15.3172 13.2431 15.186 13.191 15.0639C13.139 14.9418 13.0633 14.8311 12.9685 14.7382C12.8736 14.6453 12.7614 14.572 12.6382 14.5224C12.515 14.4729 12.3833 14.4481 12.2505 14.4495ZM20.625 10.0005C21.7905 10.0005 22.728 10.9005 22.728 12C22.728 13.101 21.7905 13.9995 20.625 13.9995C19.4595 13.9995 18.522 13.0995 18.522 12C18.522 10.899 19.4595 10.0005 20.625 10.0005ZM12.2505 9.1995H6C5.86711 9.19792 5.7352 9.22255 5.61184 9.27199C5.48848 9.32143 5.37607 9.39471 5.28105 9.48764C5.18604 9.58056 5.11028 9.69131 5.0581 9.81355C5.00593 9.93578 4.97837 10.0671 4.977 10.2C4.977 10.752 5.4345 11.2005 6 11.2005H12.2505C12.3833 11.2019 12.515 11.1771 12.6382 11.1276C12.7614 11.078 12.8736 11.0047 12.9685 10.9118C13.0633 10.8189 13.139 10.7082 13.191 10.5861C13.2431 10.464 13.2706 10.3328 13.272 10.2C13.2706 10.0672 13.2431 9.93603 13.191 9.8139C13.139 9.69176 13.0633 9.58108 12.9685 9.48817C12.8736 9.39527 12.7614 9.32196 12.6382 9.27243C12.515 9.22289 12.3833 9.19811 12.2505 9.1995Z" fill="#081CBB"/>
</g>
<defs>
<clipPath id="clip0_14_224">
<rect width="30" height="30" fill="white"/>
</clipPath>
</defs>
</svg>
