<svg width="37" height="36" viewBox="0 0 37 36" fill="none" xmlns="http://www.w3.org/2000/svg">
<path d="M3.45703 26.5205L1.10352 33H0.141602L2.85156 25.8906H3.47168L3.45703 26.5205ZM5.42969 33L3.07129 26.5205L3.05664 25.8906H3.67676L6.39648 33H5.42969ZM5.30762 30.3682V31.1396H1.31348V30.3682H5.30762ZM8.11523 28.7324V35.0312H7.20703V27.7168H8.03711L8.11523 28.7324ZM11.6748 30.3145V30.417C11.6748 30.8011 11.6292 31.1576 11.5381 31.4863C11.4469 31.8118 11.3135 32.0951 11.1377 32.3359C10.9652 32.5768 10.752 32.764 10.498 32.8975C10.2441 33.0309 9.9528 33.0977 9.62402 33.0977C9.28874 33.0977 8.99251 33.0423 8.73535 32.9316C8.47819 32.821 8.26009 32.6598 8.08105 32.4482C7.90202 32.2367 7.75879 31.9827 7.65137 31.6865C7.5472 31.3903 7.47559 31.0566 7.43652 30.6855V30.1387C7.47559 29.748 7.54883 29.3981 7.65625 29.0889C7.76367 28.7796 7.90527 28.516 8.08105 28.2979C8.26009 28.0765 8.47656 27.9089 8.73047 27.7949C8.98438 27.6777 9.27734 27.6191 9.60938 27.6191C9.94141 27.6191 10.236 27.6842 10.4932 27.8145C10.7503 27.9414 10.9668 28.1237 11.1426 28.3613C11.3184 28.599 11.4502 28.8838 11.5381 29.2158C11.6292 29.5446 11.6748 29.9108 11.6748 30.3145ZM10.7666 30.417V30.3145C10.7666 30.0508 10.7389 29.8034 10.6836 29.5723C10.6283 29.3379 10.542 29.1328 10.4248 28.957C10.3109 28.778 10.1644 28.638 9.98535 28.5371C9.80632 28.4329 9.5931 28.3809 9.3457 28.3809C9.11784 28.3809 8.91927 28.4199 8.75 28.498C8.58398 28.5762 8.44238 28.682 8.3252 28.8154C8.20801 28.9456 8.11198 29.0954 8.03711 29.2646C7.96549 29.4307 7.91178 29.6032 7.87598 29.7822V31.0469C7.94108 31.2747 8.03223 31.4896 8.14941 31.6914C8.2666 31.89 8.42285 32.0511 8.61816 32.1748C8.81348 32.2952 9.05924 32.3555 9.35547 32.3555C9.59961 32.3555 9.80957 32.305 9.98535 32.2041C10.1644 32.0999 10.3109 31.9583 10.4248 31.7793C10.542 31.6003 10.6283 31.3952 10.6836 31.1641C10.7389 30.9297 10.7666 30.6807 10.7666 30.417ZM13.7305 28.7324V35.0312H12.8223V27.7168H13.6523L13.7305 28.7324ZM17.29 30.3145V30.417C17.29 30.8011 17.2445 31.1576 17.1533 31.4863C17.0622 31.8118 16.9287 32.0951 16.7529 32.3359C16.5804 32.5768 16.3672 32.764 16.1133 32.8975C15.8594 33.0309 15.568 33.0977 15.2393 33.0977C14.904 33.0977 14.6077 33.0423 14.3506 32.9316C14.0934 32.821 13.8753 32.6598 13.6963 32.4482C13.5173 32.2367 13.374 31.9827 13.2666 31.6865C13.1624 31.3903 13.0908 31.0566 13.0518 30.6855V30.1387C13.0908 29.748 13.1641 29.3981 13.2715 29.0889C13.3789 28.7796 13.5205 28.516 13.6963 28.2979C13.8753 28.0765 14.0918 27.9089 14.3457 27.7949C14.5996 27.6777 14.8926 27.6191 15.2246 27.6191C15.5566 27.6191 15.8512 27.6842 16.1084 27.8145C16.3656 27.9414 16.582 28.1237 16.7578 28.3613C16.9336 28.599 17.0654 28.8838 17.1533 29.2158C17.2445 29.5446 17.29 29.9108 17.29 30.3145ZM16.3818 30.417V30.3145C16.3818 30.0508 16.3542 29.8034 16.2988 29.5723C16.2435 29.3379 16.1572 29.1328 16.04 28.957C15.9261 28.778 15.7796 28.638 15.6006 28.5371C15.4215 28.4329 15.2083 28.3809 14.9609 28.3809C14.7331 28.3809 14.5345 28.4199 14.3652 28.498C14.1992 28.5762 14.0576 28.682 13.9404 28.8154C13.8232 28.9456 13.7272 29.0954 13.6523 29.2646C13.5807 29.4307 13.527 29.6032 13.4912 29.7822V31.0469C13.5563 31.2747 13.6475 31.4896 13.7646 31.6914C13.8818 31.89 14.0381 32.0511 14.2334 32.1748C14.4287 32.2952 14.6745 32.3555 14.9707 32.3555C15.2148 32.3555 15.4248 32.305 15.6006 32.2041C15.7796 32.0999 15.9261 31.9583 16.04 31.7793C16.1572 31.6003 16.2435 31.3952 16.2988 31.1641C16.3542 30.9297 16.3818 30.6807 16.3818 30.417ZM19.3457 28.5469V33H18.4424V27.7168H19.3213L19.3457 28.5469ZM20.9961 27.6875L20.9912 28.5273C20.9163 28.5111 20.8447 28.5013 20.7764 28.498C20.7113 28.4915 20.6364 28.4883 20.5518 28.4883C20.3434 28.4883 20.1595 28.5208 20 28.5859C19.8405 28.651 19.7054 28.7422 19.5947 28.8594C19.484 28.9766 19.3962 29.1165 19.3311 29.2793C19.2692 29.4388 19.2285 29.6146 19.209 29.8066L18.9551 29.9531C18.9551 29.6341 18.986 29.3346 19.0479 29.0547C19.113 28.7747 19.2122 28.5273 19.3457 28.3125C19.4792 28.0944 19.6484 27.9251 19.8535 27.8047C20.0618 27.681 20.3092 27.6191 20.5957 27.6191C20.6608 27.6191 20.7357 27.6273 20.8203 27.6436C20.9049 27.6566 20.9635 27.6712 20.9961 27.6875ZM21.4941 30.417V30.3047C21.4941 29.9238 21.5495 29.5706 21.6602 29.2451C21.7708 28.9163 21.9303 28.6315 22.1387 28.3906C22.347 28.1465 22.5993 27.9577 22.8955 27.8242C23.1917 27.6875 23.5238 27.6191 23.8916 27.6191C24.2627 27.6191 24.5964 27.6875 24.8926 27.8242C25.1921 27.9577 25.446 28.1465 25.6543 28.3906C25.8659 28.6315 26.027 28.9163 26.1377 29.2451C26.2484 29.5706 26.3037 29.9238 26.3037 30.3047V30.417C26.3037 30.7979 26.2484 31.151 26.1377 31.4766C26.027 31.8021 25.8659 32.0869 25.6543 32.3311C25.446 32.5719 25.1937 32.7607 24.8975 32.8975C24.6045 33.0309 24.2725 33.0977 23.9014 33.0977C23.5303 33.0977 23.1966 33.0309 22.9004 32.8975C22.6042 32.7607 22.3503 32.5719 22.1387 32.3311C21.9303 32.0869 21.7708 31.8021 21.6602 31.4766C21.5495 31.151 21.4941 30.7979 21.4941 30.417ZM22.3975 30.3047V30.417C22.3975 30.6807 22.4284 30.9297 22.4902 31.1641C22.5521 31.3952 22.6449 31.6003 22.7686 31.7793C22.8955 31.9583 23.0534 32.0999 23.2422 32.2041C23.431 32.305 23.6507 32.3555 23.9014 32.3555C24.1488 32.3555 24.3652 32.305 24.5508 32.2041C24.7396 32.0999 24.8958 31.9583 25.0195 31.7793C25.1432 31.6003 25.236 31.3952 25.2979 31.1641C25.363 30.9297 25.3955 30.6807 25.3955 30.417V30.3047C25.3955 30.0443 25.363 29.7985 25.2979 29.5674C25.236 29.333 25.1416 29.1263 25.0146 28.9473C24.891 28.765 24.7347 28.6217 24.5459 28.5176C24.3604 28.4134 24.1423 28.3613 23.8916 28.3613C23.6442 28.3613 23.4261 28.4134 23.2373 28.5176C23.0518 28.6217 22.8955 28.765 22.7686 28.9473C22.6449 29.1263 22.5521 29.333 22.4902 29.5674C22.4284 29.7985 22.3975 30.0443 22.3975 30.3047ZM28.9648 32.1846L30.4102 27.7168H31.333L29.4336 33H28.8281L28.9648 32.1846ZM27.7588 27.7168L29.248 32.209L29.3506 33H28.7451L26.8311 27.7168H27.7588ZM34.3262 33.0977C33.9583 33.0977 33.6247 33.0358 33.3252 32.9121C33.029 32.7852 32.7734 32.6077 32.5586 32.3799C32.347 32.152 32.1842 31.8818 32.0703 31.5693C31.9564 31.2568 31.8994 30.915 31.8994 30.5439V30.3389C31.8994 29.9092 31.9629 29.5267 32.0898 29.1914C32.2168 28.8529 32.3893 28.5664 32.6074 28.332C32.8255 28.0977 33.0729 27.9202 33.3496 27.7998C33.6263 27.6794 33.9128 27.6191 34.209 27.6191C34.5866 27.6191 34.9121 27.6842 35.1855 27.8145C35.4622 27.9447 35.6885 28.127 35.8643 28.3613C36.04 28.5924 36.1702 28.8659 36.2549 29.1816C36.3395 29.4941 36.3818 29.8359 36.3818 30.207V30.6123H32.4365V29.875H35.4785V29.8066C35.4655 29.5723 35.4167 29.3444 35.332 29.123C35.2507 28.9017 35.1204 28.7194 34.9414 28.5762C34.7624 28.4329 34.5182 28.3613 34.209 28.3613C34.0039 28.3613 33.8151 28.4053 33.6426 28.4932C33.4701 28.5778 33.3219 28.7048 33.1982 28.874C33.0745 29.0433 32.9785 29.25 32.9102 29.4941C32.8418 29.7383 32.8076 30.0199 32.8076 30.3389V30.5439C32.8076 30.7946 32.8418 31.0306 32.9102 31.252C32.9818 31.4701 33.0843 31.6621 33.2178 31.8281C33.3545 31.9941 33.5189 32.1243 33.7109 32.2188C33.9062 32.3132 34.1276 32.3604 34.375 32.3604C34.694 32.3604 34.9642 32.2952 35.1855 32.165C35.4069 32.0348 35.6006 31.8607 35.7666 31.6426L36.3135 32.0771C36.1995 32.2497 36.0547 32.4141 35.8789 32.5703C35.7031 32.7266 35.4867 32.8535 35.2295 32.9512C34.9756 33.0488 34.6745 33.0977 34.3262 33.0977Z" fill="#101010"/>
<path fill-rule="evenodd" clip-rule="evenodd" d="M13 2C11.6739 2 10.4021 2.52678 9.46447 3.46447C8.52678 4.40215 8 5.67392 8 7V17C8 18.3261 8.52678 19.5979 9.46447 20.5355C10.4021 21.4732 11.6739 22 13 22H23C24.3261 22 25.5979 21.4732 26.5355 20.5355C27.4732 19.5979 28 18.3261 28 17V7C28 5.67392 27.4732 4.40215 26.5355 3.46447C25.5979 2.52678 24.3261 2 23 2H13ZM21.73 10.684C21.8198 10.5881 21.8899 10.4755 21.9362 10.3526C21.9825 10.2296 22.0041 10.0988 21.9998 9.96747C21.9956 9.83617 21.9655 9.707 21.9113 9.58732C21.8571 9.46765 21.7799 9.35982 21.684 9.27C21.5881 9.18018 21.4755 9.11011 21.3526 9.06381C21.2296 9.01751 21.0988 8.99588 20.9675 9.00015C20.8362 9.00442 20.707 9.03451 20.5873 9.08871C20.4677 9.1429 20.3598 9.22014 20.27 9.316L17.187 12.606L15.664 11.253C15.4645 11.0871 15.2083 11.0053 14.9495 11.0248C14.6907 11.0443 14.4497 11.1637 14.2773 11.3576C14.1049 11.5516 14.0147 11.8049 14.0256 12.0642C14.0366 12.3234 14.1479 12.5683 14.336 12.747L16.586 14.747C16.7807 14.9199 17.0352 15.0101 17.2953 14.9983C17.5554 14.9866 17.8007 14.8738 17.979 14.684L21.729 10.684H21.73Z" fill="#00DA00"/>
</svg>
