<svg width="33" height="36" viewBox="0 0 33 36" fill="none" xmlns="http://www.w3.org/2000/svg">
<path d="M2.74902 33H1.26465L1.27441 32.2334H2.74902C3.25684 32.2334 3.68001 32.1276 4.01855 31.916C4.3571 31.7012 4.611 31.4017 4.78027 31.0176C4.9528 30.6302 5.03906 30.1777 5.03906 29.6602V29.2256C5.03906 28.8187 4.99023 28.4574 4.89258 28.1416C4.79492 27.8226 4.65169 27.554 4.46289 27.3359C4.27409 27.1146 4.04297 26.9469 3.76953 26.833C3.49935 26.7191 3.18848 26.6621 2.83691 26.6621H1.23535V25.8906H2.83691C3.30241 25.8906 3.72721 25.9688 4.11133 26.125C4.49544 26.278 4.82585 26.501 5.10254 26.7939C5.38249 27.0837 5.59733 27.4352 5.74707 27.8486C5.89681 28.2588 5.97168 28.721 5.97168 29.2354V29.6602C5.97168 30.1745 5.89681 30.6383 5.74707 31.0518C5.59733 31.4619 5.38086 31.8118 5.09766 32.1016C4.81771 32.3913 4.47917 32.6143 4.08203 32.7705C3.68815 32.9235 3.24382 33 2.74902 33ZM1.76758 25.8906V33H0.825195V25.8906H1.76758ZM9.44336 33.0977C9.07552 33.0977 8.74186 33.0358 8.44238 32.9121C8.14616 32.7852 7.89062 32.6077 7.67578 32.3799C7.46419 32.152 7.30143 31.8818 7.1875 31.5693C7.07357 31.2568 7.0166 30.915 7.0166 30.5439V30.3389C7.0166 29.9092 7.08008 29.5267 7.20703 29.1914C7.33398 28.8529 7.50651 28.5664 7.72461 28.332C7.94271 28.0977 8.1901 27.9202 8.4668 27.7998C8.74349 27.6794 9.02995 27.6191 9.32617 27.6191C9.70378 27.6191 10.0293 27.6842 10.3027 27.8145C10.5794 27.9447 10.8057 28.127 10.9814 28.3613C11.1572 28.5924 11.2874 28.8659 11.3721 29.1816C11.4567 29.4941 11.499 29.8359 11.499 30.207V30.6123H7.55371V29.875H10.5957V29.8066C10.5827 29.5723 10.5339 29.3444 10.4492 29.123C10.3678 28.9017 10.2376 28.7194 10.0586 28.5762C9.87956 28.4329 9.63542 28.3613 9.32617 28.3613C9.12109 28.3613 8.93229 28.4053 8.75977 28.4932C8.58724 28.5778 8.43913 28.7048 8.31543 28.874C8.19173 29.0433 8.0957 29.25 8.02734 29.4941C7.95898 29.7383 7.9248 30.0199 7.9248 30.3389V30.5439C7.9248 30.7946 7.95898 31.0306 8.02734 31.252C8.09896 31.4701 8.2015 31.6621 8.33496 31.8281C8.47168 31.9941 8.63607 32.1243 8.82812 32.2188C9.02344 32.3132 9.24479 32.3604 9.49219 32.3604C9.8112 32.3604 10.0814 32.2952 10.3027 32.165C10.5241 32.0348 10.7178 31.8607 10.8838 31.6426L11.4307 32.0771C11.3167 32.2497 11.1719 32.4141 10.9961 32.5703C10.8203 32.7266 10.6038 32.8535 10.3467 32.9512C10.0928 33.0488 9.79167 33.0977 9.44336 33.0977ZM14.668 32.3555C14.8828 32.3555 15.0814 32.3115 15.2637 32.2236C15.446 32.1357 15.5957 32.0153 15.7129 31.8623C15.8301 31.7061 15.8968 31.5286 15.9131 31.3301H16.7725C16.7562 31.6426 16.6504 31.9339 16.4551 32.2041C16.263 32.471 16.0107 32.6875 15.6982 32.8535C15.3857 33.0163 15.0423 33.0977 14.668 33.0977C14.2708 33.0977 13.9242 33.0277 13.6279 32.8877C13.335 32.7477 13.0908 32.5557 12.8955 32.3115C12.7035 32.0674 12.5586 31.7874 12.4609 31.4717C12.3665 31.1527 12.3193 30.8158 12.3193 30.4609V30.2559C12.3193 29.901 12.3665 29.5658 12.4609 29.25C12.5586 28.931 12.7035 28.6494 12.8955 28.4053C13.0908 28.1611 13.335 27.9691 13.6279 27.8291C13.9242 27.6891 14.2708 27.6191 14.668 27.6191C15.0814 27.6191 15.4427 27.7038 15.752 27.873C16.0612 28.0391 16.3037 28.2669 16.4795 28.5566C16.6585 28.8431 16.7562 29.1686 16.7725 29.5332H15.9131C15.8968 29.3151 15.835 29.1182 15.7275 28.9424C15.6234 28.7666 15.4801 28.6266 15.2979 28.5225C15.1188 28.415 14.9089 28.3613 14.668 28.3613C14.3913 28.3613 14.1585 28.4167 13.9697 28.5273C13.7842 28.6348 13.6361 28.7812 13.5254 28.9668C13.418 29.1491 13.3398 29.3525 13.291 29.5771C13.2454 29.7985 13.2227 30.0247 13.2227 30.2559V30.4609C13.2227 30.6921 13.2454 30.9199 13.291 31.1445C13.3366 31.3691 13.4131 31.5726 13.5205 31.7549C13.6312 31.9372 13.7793 32.0837 13.9648 32.1943C14.1536 32.3018 14.388 32.3555 14.668 32.3555ZM18.7695 25.5V33H17.8613V25.5H18.7695ZM21.2012 27.7168V33H20.293V27.7168H21.2012ZM20.2246 26.3154C20.2246 26.1689 20.2686 26.0452 20.3564 25.9443C20.4476 25.8434 20.5811 25.793 20.7568 25.793C20.9294 25.793 21.0612 25.8434 21.1523 25.9443C21.2467 26.0452 21.2939 26.1689 21.2939 26.3154C21.2939 26.4554 21.2467 26.5758 21.1523 26.6768C21.0612 26.7744 20.9294 26.8232 20.7568 26.8232C20.5811 26.8232 20.4476 26.7744 20.3564 26.6768C20.2686 26.5758 20.2246 26.4554 20.2246 26.3154ZM23.5547 28.8447V33H22.6514V27.7168H23.5059L23.5547 28.8447ZM23.3398 30.1582L22.9639 30.1436C22.9671 29.7822 23.0208 29.4486 23.125 29.1426C23.2292 28.8333 23.3757 28.5648 23.5645 28.3369C23.7533 28.109 23.9779 27.9333 24.2383 27.8096C24.502 27.6826 24.7933 27.6191 25.1123 27.6191C25.3727 27.6191 25.6071 27.6549 25.8154 27.7266C26.0238 27.7949 26.2012 27.9056 26.3477 28.0586C26.4974 28.2116 26.6113 28.4102 26.6895 28.6543C26.7676 28.8952 26.8066 29.1898 26.8066 29.5381V33H25.8984V29.5283C25.8984 29.2516 25.8577 29.0303 25.7764 28.8643C25.695 28.695 25.5762 28.5729 25.4199 28.498C25.2637 28.4199 25.0716 28.3809 24.8438 28.3809C24.6191 28.3809 24.4141 28.4281 24.2285 28.5225C24.0462 28.6169 23.8883 28.7471 23.7549 28.9131C23.6247 29.0791 23.5221 29.2695 23.4473 29.4844C23.3757 29.696 23.3398 29.9206 23.3398 30.1582ZM30.3711 33.0977C30.0033 33.0977 29.6696 33.0358 29.3701 32.9121C29.0739 32.7852 28.8184 32.6077 28.6035 32.3799C28.3919 32.152 28.2292 31.8818 28.1152 31.5693C28.0013 31.2568 27.9443 30.915 27.9443 30.5439V30.3389C27.9443 29.9092 28.0078 29.5267 28.1348 29.1914C28.2617 28.8529 28.4342 28.5664 28.6523 28.332C28.8704 28.0977 29.1178 27.9202 29.3945 27.7998C29.6712 27.6794 29.9577 27.6191 30.2539 27.6191C30.6315 27.6191 30.957 27.6842 31.2305 27.8145C31.5072 27.9447 31.7334 28.127 31.9092 28.3613C32.085 28.5924 32.2152 28.8659 32.2998 29.1816C32.3844 29.4941 32.4268 29.8359 32.4268 30.207V30.6123H28.4814V29.875H31.5234V29.8066C31.5104 29.5723 31.4616 29.3444 31.377 29.123C31.2956 28.9017 31.1654 28.7194 30.9863 28.5762C30.8073 28.4329 30.5632 28.3613 30.2539 28.3613C30.0488 28.3613 29.86 28.4053 29.6875 28.4932C29.515 28.5778 29.3669 28.7048 29.2432 28.874C29.1195 29.0433 29.0234 29.25 28.9551 29.4941C28.8867 29.7383 28.8525 30.0199 28.8525 30.3389V30.5439C28.8525 30.7946 28.8867 31.0306 28.9551 31.252C29.0267 31.4701 29.1292 31.6621 29.2627 31.8281C29.3994 31.9941 29.5638 32.1243 29.7559 32.2188C29.9512 32.3132 30.1725 32.3604 30.4199 32.3604C30.7389 32.3604 31.0091 32.2952 31.2305 32.165C31.4518 32.0348 31.6455 31.8607 31.8115 31.6426L32.3584 32.0771C32.2445 32.2497 32.0996 32.4141 31.9238 32.5703C31.748 32.7266 31.5316 32.8535 31.2744 32.9512C31.0205 33.0488 30.7194 33.0977 30.3711 33.0977Z" fill="#101010"/>
<path d="M17 2C11.47 2 7 6.47 7 12C7 17.53 11.47 22 17 22C22.53 22 27 17.53 27 12C27 6.47 22.53 2 17 2ZM21.3 16.3C21.2075 16.3927 21.0976 16.4663 20.9766 16.5164C20.8557 16.5666 20.726 16.5924 20.595 16.5924C20.464 16.5924 20.3343 16.5666 20.2134 16.5164C20.0924 16.4663 19.9825 16.3927 19.89 16.3L17 13.41L14.11 16.3C13.923 16.487 13.6694 16.592 13.405 16.592C13.1406 16.592 12.887 16.487 12.7 16.3C12.513 16.113 12.408 15.8594 12.408 15.595C12.408 15.4641 12.4338 15.3344 12.4839 15.2135C12.534 15.0925 12.6074 14.9826 12.7 14.89L15.59 12L12.7 9.11C12.513 8.92302 12.408 8.66943 12.408 8.405C12.408 8.14057 12.513 7.88698 12.7 7.7C12.887 7.51302 13.1406 7.40798 13.405 7.40798C13.6694 7.40798 13.923 7.51302 14.11 7.7L17 10.59L19.89 7.7C19.9826 7.60742 20.0925 7.53398 20.2135 7.48387C20.3344 7.43377 20.4641 7.40798 20.595 7.40798C20.7259 7.40798 20.8556 7.43377 20.9765 7.48387C21.0975 7.53398 21.2074 7.60742 21.3 7.7C21.3926 7.79258 21.466 7.90249 21.5161 8.02346C21.5662 8.14442 21.592 8.27407 21.592 8.405C21.592 8.53593 21.5662 8.66558 21.5161 8.78654C21.466 8.90751 21.3926 9.01742 21.3 9.11L18.41 12L21.3 14.89C21.68 15.27 21.68 15.91 21.3 16.3Z" fill="#FF0000"/>
</svg>
