<svg width="24" height="24" viewBox="0 0 24 24" fill="none" xmlns="http://www.w3.org/2000/svg">
<path d="M11.9028 5.98083C11.3095 5.98083 10.7295 6.15678 10.2361 6.48643C9.74278 6.81607 9.35826 7.28461 9.13119 7.83278C8.90413 8.38096 8.84472 8.98416 8.96048 9.56611C9.07623 10.148 9.36195 10.6826 9.78151 11.1022C10.2011 11.5217 10.7356 11.8074 11.3176 11.9232C11.8995 12.0389 12.5027 11.9795 13.0509 11.7525C13.5991 11.5254 14.0676 11.1409 14.3972 10.6475C14.7269 10.1542 14.9028 9.57418 14.9028 8.98083C14.9019 8.18546 14.5856 7.42293 14.0232 6.86051C13.4607 6.2981 12.6982 5.98174 11.9028 5.98083ZM11.9028 10.4808C11.6062 10.4808 11.3162 10.3929 11.0695 10.228C10.8228 10.0632 10.6305 9.82895 10.517 9.55486C10.4035 9.28077 10.3738 8.97917 10.4317 8.6882C10.4895 8.39723 10.6324 8.12995 10.8422 7.92017C11.052 7.7104 11.3192 7.56753 11.6102 7.50966C11.9012 7.45178 12.2028 7.48148 12.4769 7.59502C12.7509 7.70855 12.9852 7.90081 13.15 8.14748C13.3149 8.39415 13.4028 8.68416 13.4028 8.98083C13.4024 9.37852 13.2442 9.75978 12.963 10.041C12.6818 10.3222 12.3005 10.4804 11.9028 10.4808Z" fill="black"/>
<path d="M17.6676 3.2117C16.2423 1.78672 14.3396 0.940225 12.3269 0.835587C10.3141 0.73095 8.33391 1.37559 6.76849 2.64509C5.20307 3.91459 4.16338 5.71895 3.85009 7.70994C3.5368 9.70092 3.97212 11.7374 5.07202 13.4263L10.7395 22.1269C10.8657 22.3205 11.0381 22.4796 11.2412 22.5897C11.4444 22.6998 11.6718 22.7574 11.9029 22.7574C12.1339 22.7574 12.3613 22.6998 12.5645 22.5897C12.7676 22.4796 12.9401 22.3205 13.0662 22.1269L18.7339 13.4263C19.7545 11.8596 20.2055 9.98968 20.0114 8.12999C19.8172 6.2703 18.9898 4.53385 17.6676 3.2117ZM17.4771 12.6075L11.9029 21.1645L6.32865 12.6075C4.6224 9.98819 4.98835 6.48287 7.19879 4.27234C7.81653 3.65458 8.54991 3.16454 9.35704 2.83021C10.1642 2.49588 11.0292 2.3238 11.9029 2.3238C12.7765 2.3238 13.6416 2.49588 14.4487 2.83021C15.2559 3.16454 15.9892 3.65458 16.607 4.27234C18.8174 6.48287 19.1833 9.98819 17.4771 12.6075Z" fill="black"/>
</svg>
