<?xml version="1.0" standalone="no"?>
<!DOCTYPE svg PUBLIC "-//W3C//DTD SVG 20010904//EN"
 "http://www.w3.org/TR/2001/REC-SVG-20010904/DTD/svg10.dtd">
<svg version="1.0" xmlns="http://www.w3.org/2000/svg"
 width="1096.000000pt" height="1096.000000pt" viewBox="0 0 1096.000000 1096.000000"
 preserveAspectRatio="xMidYMid meet">
<metadata>
Created by potrace 1.14, written by Peter Selinger 2001-2017
</metadata>
<g transform="translate(0.000000,1096.000000) scale(0.100000,-0.100000)"
fill="#000000" stroke="none">
<path d="M3935 8669 c-22 -4 -55 -11 -74 -14 -33 -7 -53 -11 -101 -22 -14 -3
-34 -7 -45 -8 -11 -2 -20 -4 -20 -5 0 -1 -7 -3 -15 -5 -8 -1 -107 -22 -220
-45 -113 -23 -212 -43 -220 -45 -15 -3 -162 -34 -190 -40 -83 -18 -270 -57
-290 -61 -14 -3 -68 -14 -120 -25 -52 -11 -106 -23 -120 -25 -22 -4 -120 -25
-190 -41 -14 -3 -36 -7 -50 -9 -14 -2 -45 -8 -70 -14 -51 -12 -84 -19 -120
-26 -14 -2 -45 -9 -70 -14 -56 -13 -88 -20 -120 -26 -14 -2 -38 -7 -55 -11
-16 -4 -32 -7 -35 -8 -55 -11 -90 -18 -110 -21 -14 -3 -41 -9 -60 -14 -19 -5
-51 -11 -70 -14 -19 -3 -51 -10 -70 -14 -19 -5 -38 -9 -42 -10 -5 -1 -9 -2
-10 -3 -2 0 -14 -3 -28 -5 -14 -3 -43 -10 -65 -16 -22 -6 -43 -11 -47 -10 -5
1 -8 -2 -8 -8 0 -5 -9 -10 -20 -10 -11 0 -20 -5 -20 -10 0 -6 -3 -9 -7 -8 -24
5 -132 -65 -207 -133 -63 -57 -131 -148 -169 -224 -21 -41 -93 -239 -102 -280
-1 -5 -5 -17 -8 -25 -4 -8 -42 -125 -86 -260 -44 -135 -109 -335 -146 -445
-36 -110 -102 -310 -146 -445 -44 -135 -83 -252 -85 -260 -3 -8 -6 -17 -6 -20
-1 -3 -20 -61 -43 -130 -65 -191 -212 -639 -226 -690 -7 -25 -14 -52 -17 -60
-10 -39 -9 -235 3 -296 30 -156 110 -303 240 -440 32 -34 159 -176 196 -219
19 -22 50 -56 69 -77 19 -20 56 -60 82 -90 25 -29 61 -69 78 -88 17 -19 57
-64 88 -99 31 -36 66 -74 77 -86 11 -11 49 -54 85 -95 36 -41 81 -91 100 -111
19 -20 46 -50 60 -66 14 -17 48 -55 75 -85 28 -30 79 -87 115 -128 36 -41 74
-84 85 -96 11 -12 43 -47 70 -78 28 -31 68 -76 90 -100 22 -24 69 -76 105
-117 36 -41 75 -84 87 -96 12 -13 21 -23 19 -23 -6 0 124 -140 189 -205 64
-64 115 -108 115 -100 0 2 16 -7 36 -20 20 -14 43 -25 50 -25 8 0 14 -4 14 -8
0 -11 110 -49 195 -67 45 -9 105 -13 170 -10 96 4 119 6 175 19 14 4 39 9 55
12 17 3 48 10 70 15 22 5 49 11 60 13 11 2 45 8 75 15 30 6 64 13 75 15 11 2
31 7 45 10 14 3 36 8 50 10 29 6 62 13 105 23 17 3 37 7 45 8 8 1 58 11 110
23 52 11 111 24 130 27 19 3 50 10 68 15 17 4 32 6 32 4 0 -3 8 -1 18 5 9 5
36 11 59 14 23 4 71 13 107 21 36 9 78 18 94 21 15 3 38 7 52 10 14 3 48 10
75 15 28 6 59 12 70 15 11 2 63 14 115 25 52 11 106 23 120 26 14 3 34 7 45 8
11 1 34 6 50 9 17 4 40 10 53 12 12 3 32 7 45 10 90 19 135 28 152 31 11 1 20
3 20 4 0 2 18 6 60 13 17 3 50 10 75 15 25 6 56 13 70 16 14 3 36 7 50 10 30
7 166 35 197 40 88 17 195 64 293 129 63 42 179 163 218 230 32 52 90 183 97
217 3 17 82 257 92 280 3 8 7 20 9 27 4 20 45 147 54 168 8 19 23 64 25 75 1
8 65 202 86 260 l20 56 620 -1 c403 0 623 4 628 10 4 6 7 112 7 238 -1 125 1
227 4 227 3 0 21 -32 40 -71 19 -39 41 -79 50 -89 8 -10 35 -43 60 -73 93
-113 274 -214 440 -247 25 -5 56 -12 70 -15 28 -6 175 -16 265 -17 92 -1 211
12 290 34 22 6 45 11 50 13 48 11 193 78 263 121 145 90 259 224 301 354 l11
36 538 -1 537 0 1 -247 c1 -136 4 -253 7 -260 3 -10 65 -13 273 -11 148 0 272
2 275 2 3 1 5 108 4 239 0 130 2 246 6 257 6 18 15 20 100 20 l94 0 0 220 0
220 -90 0 c-49 0 -94 3 -100 7 -7 4 -10 262 -9 742 l0 737 -295 -3 -294 -3
-16 -26 c-9 -15 -36 -54 -61 -89 -25 -34 -49 -71 -55 -81 -5 -11 -13 -19 -17
-19 -5 0 -8 -6 -8 -14 0 -8 -4 -16 -8 -18 -4 -1 -33 -39 -64 -83 -32 -44 -62
-85 -68 -92 -5 -7 -10 -17 -10 -23 0 -5 -4 -10 -10 -10 -5 0 -10 -4 -10 -10 0
-5 -8 -19 -17 -29 -10 -11 -49 -65 -88 -121 -38 -55 -112 -159 -162 -231 -51
-71 -93 -132 -93 -134 0 -3 -7 -13 -16 -23 -13 -14 -126 -171 -176 -246 -7
-10 -24 -33 -38 -51 -20 -28 -100 -140 -133 -189 -5 -7 -11 -5 -19 9 -7 11
-13 22 -13 25 -1 11 -65 97 -97 129 -50 51 -94 82 -171 121 -39 20 -72 40 -74
46 -1 5 28 27 65 49 137 82 232 214 256 358 11 63 12 187 3 227 -15 60 -21 80
-38 117 -10 24 -19 46 -19 49 0 15 -91 133 -128 166 -108 98 -294 186 -468
223 -106 23 -302 23 -449 -1 -100 -15 -263 -81 -379 -151 -126 -77 -253 -232
-295 -360 -17 -50 -25 -54 -28 -14 -3 43 -38 135 -72 191 -57 92 -110 147
-199 204 -104 68 -184 101 -317 132 -110 25 -379 20 -485 -9 -9 -2 -34 24
-140 143 -41 47 -86 97 -100 111 -14 14 -40 43 -58 65 -47 55 -151 170 -189
211 -18 18 -33 36 -33 39 0 3 -10 15 -22 27 -13 12 -43 45 -68 72 -25 28 -79
89 -120 135 -41 46 -84 93 -95 106 -11 12 -49 55 -85 94 -36 40 -72 81 -80 90
-8 9 -44 50 -80 90 -36 40 -72 81 -80 90 -8 9 -47 53 -87 96 -39 43 -81 90
-93 104 -143 167 -295 321 -350 356 -144 90 -258 125 -415 129 -66 1 -138 -1
-160 -6z m4367 -2409 c76 -28 136 -82 165 -149 47 -105 19 -242 -62 -307 -16
-13 -36 -29 -42 -35 -7 -5 -13 -7 -13 -3 0 3 -6 2 -12 -4 -21 -17 -130 -43
-178 -43 -8 0 -55 0 -104 0 -49 1 -92 -1 -94 -4 -3 -3 -11 0 -18 6 -21 18 -23
0 -21 -220 l2 -205 165 -2 c171 -3 195 -5 229 -24 12 -6 21 -8 21 -6 0 11 96
-47 121 -73 43 -44 71 -110 77 -177 4 -54 1 -71 -25 -127 -20 -42 -45 -76 -73
-98 -23 -19 -44 -32 -47 -31 -3 2 -9 -1 -13 -7 -3 -6 -16 -13 -28 -16 -12 -2
-27 -7 -32 -10 -40 -25 -216 -26 -285 -1 -109 38 -200 145 -220 259 -4 20 -12
40 -19 44 -6 5 -138 8 -293 8 l-282 1 5 -51 c8 -85 19 -145 38 -200 8 -22 13
-42 11 -44 -6 -6 -1095 -6 -1095 0 0 22 29 82 62 132 45 68 98 117 182 172 33
21 68 44 77 50 9 5 38 24 65 42 112 73 340 224 359 239 11 8 33 25 49 37 45
34 124 116 168 175 73 98 137 264 134 345 -1 15 1 27 4 27 4 0 6 10 6 23 l-1
22 260 1 c143 1 265 2 270 3 6 0 11 9 12 19 3 38 42 109 84 153 93 97 256 130
391 79z m-1744 -37 c38 -23 68 -55 94 -100 34 -59 32 -170 -6 -241 -28 -52
-133 -168 -143 -158 -3 2 -1 11 3 18 5 7 9 18 11 23 1 6 9 42 17 80 15 68 16
256 2 313 -3 12 -8 31 -10 42 -3 11 -8 25 -11 30 -10 15 13 12 43 -7z m3639
-645 l-2 -363 -252 0 c-139 0 -253 3 -253 8 0 5 29 52 65 104 36 52 65 99 65
104 0 5 5 9 10 9 6 0 10 6 10 14 0 8 4 16 8 18 5 2 48 64 96 138 49 74 92 137
97 138 5 2 9 8 9 14 0 9 57 98 70 108 4 3 15 20 25 38 11 17 27 32 36 32 16 0
17 -28 16 -362z"/>
</g>
</svg>
