<svg width="30" height="30" viewBox="0 0 30 30" fill="none" xmlns="http://www.w3.org/2000/svg">
<path d="M27.1875 5.625C27.4361 5.625 27.6746 5.72377 27.8504 5.89959C28.0262 6.0754 28.125 6.31386 28.125 6.5625V23.4375C28.125 23.6861 28.0262 23.9246 27.8504 24.1004C27.6746 24.2762 27.4361 24.375 27.1875 24.375H2.8125C2.56386 24.375 2.3254 24.2762 2.14959 24.1004C1.97377 23.9246 1.875 23.6861 1.875 23.4375V6.5625C1.875 6.31386 1.97377 6.0754 2.14959 5.89959C2.3254 5.72377 2.56386 5.625 2.8125 5.625H27.1875ZM2.8125 3.75C2.06658 3.75 1.35121 4.04632 0.823762 4.57376C0.296316 5.10121 0 5.81658 0 6.5625L0 23.4375C0 24.1834 0.296316 24.8988 0.823762 25.4262C1.35121 25.9537 2.06658 26.25 2.8125 26.25H27.1875C27.9334 26.25 28.6488 25.9537 29.1762 25.4262C29.7037 24.8988 30 24.1834 30 23.4375V6.5625C30 5.81658 29.7037 5.10121 29.1762 4.57376C28.6488 4.04632 27.9334 3.75 27.1875 3.75H2.8125Z" fill="#081CBB"/>
<path d="M9.375 15C9.375 14.7514 9.47377 14.5129 9.64959 14.3371C9.8254 14.1613 10.0639 14.0625 10.3125 14.0625H23.4375C23.6861 14.0625 23.9246 14.1613 24.1004 14.3371C24.2762 14.5129 24.375 14.7514 24.375 15C24.375 15.2486 24.2762 15.4871 24.1004 15.6629C23.9246 15.8387 23.6861 15.9375 23.4375 15.9375H10.3125C10.0639 15.9375 9.8254 15.8387 9.64959 15.6629C9.47377 15.4871 9.375 15.2486 9.375 15ZM9.375 10.3125C9.375 10.0639 9.47377 9.8254 9.64959 9.64959C9.8254 9.47377 10.0639 9.375 10.3125 9.375H23.4375C23.6861 9.375 23.9246 9.47377 24.1004 9.64959C24.2762 9.8254 24.375 10.0639 24.375 10.3125C24.375 10.5611 24.2762 10.7996 24.1004 10.9754C23.9246 11.1512 23.6861 11.25 23.4375 11.25H10.3125C10.0639 11.25 9.8254 11.1512 9.64959 10.9754C9.47377 10.7996 9.375 10.5611 9.375 10.3125ZM9.375 19.6875C9.375 19.4389 9.47377 19.2004 9.64959 19.0246C9.8254 18.8488 10.0639 18.75 10.3125 18.75H23.4375C23.6861 18.75 23.9246 18.8488 24.1004 19.0246C24.2762 19.2004 24.375 19.4389 24.375 19.6875C24.375 19.9361 24.2762 20.1746 24.1004 20.3504C23.9246 20.5262 23.6861 20.625 23.4375 20.625H10.3125C10.0639 20.625 9.8254 20.5262 9.64959 20.3504C9.47377 20.1746 9.375 19.9361 9.375 19.6875ZM7.5 10.3125C7.5 10.5611 7.40123 10.7996 7.22541 10.9754C7.0496 11.1512 6.81114 11.25 6.5625 11.25C6.31386 11.25 6.0754 11.1512 5.89959 10.9754C5.72377 10.7996 5.625 10.5611 5.625 10.3125C5.625 10.0639 5.72377 9.8254 5.89959 9.64959C6.0754 9.47377 6.31386 9.375 6.5625 9.375C6.81114 9.375 7.0496 9.47377 7.22541 9.64959C7.40123 9.8254 7.5 10.0639 7.5 10.3125ZM7.5 15C7.5 15.2486 7.40123 15.4871 7.22541 15.6629C7.0496 15.8387 6.81114 15.9375 6.5625 15.9375C6.31386 15.9375 6.0754 15.8387 5.89959 15.6629C5.72377 15.4871 5.625 15.2486 5.625 15C5.625 14.7514 5.72377 14.5129 5.89959 14.3371C6.0754 14.1613 6.31386 14.0625 6.5625 14.0625C6.81114 14.0625 7.0496 14.1613 7.22541 14.3371C7.40123 14.5129 7.5 14.7514 7.5 15ZM7.5 19.6875C7.5 19.9361 7.40123 20.1746 7.22541 20.3504C7.0496 20.5262 6.81114 20.625 6.5625 20.625C6.31386 20.625 6.0754 20.5262 5.89959 20.3504C5.72377 20.1746 5.625 19.9361 5.625 19.6875C5.625 19.4389 5.72377 19.2004 5.89959 19.0246C6.0754 18.8488 6.31386 18.75 6.5625 18.75C6.81114 18.75 7.0496 18.8488 7.22541 19.0246C7.40123 19.2004 7.5 19.4389 7.5 19.6875Z" fill="#081CBB"/>
</svg>
